<svg xmlns="http://www.w3.org/2000/svg" version="1.1" xmlns:xlink="http://www.w3.org/1999/xlink" xmlns:svgjs="http://svgjs.dev/svgjs" viewBox="0 0 800 800"><defs><filter id="ssspot-filter" x="-20%" y="-20%" width="140%" height="140%" filterUnits="objectBoundingBox" primitiveUnits="userSpaceOnUse" color-interpolation-filters="sRGB">
	<feTurbulence type="turbulence" baseFrequency="0.022 0.218" numOctaves="2" seed="151" stitchTiles="stitch" x="0%" y="0%" width="100%" height="100%" result="turbulence"></feTurbulence>
	<feGaussianBlur stdDeviation="0 3" x="0%" y="0%" width="100%" height="100%" in="turbulence" edgeMode="duplicate" result="blur"></feGaussianBlur>
	<feDisplacementMap in="SourceGraphic" in2="blur" scale="32" xChannelSelector="R" yChannelSelector="B" x="0%" y="0%" width="100%" height="100%" result="displacementMap"></feDisplacementMap>
</filter></defs><rect width="100%" height="100%" fill="#e8e8e8"></rect><g fill="#efd09e" filter="url(#ssspot-filter)"><circle r="5.950626929044718" cx="96.19016490685283" cy="316.8852438272611"></circle><circle r="7.378107595743435" cx="306.2107731408999" cy="215.78931172345696"></circle><circle r="5.749773904462554" cx="358.56605605962363" cy="13.54354256056787"></circle><circle r="6.727870672768416" cx="641.7310775869105" cy="486.9997417191119"></circle><circle r="4.901467290470219" cx="754.1709601177499" cy="735.980898712326"></circle><circle r="6.143564138646116" cx="268.7413456132545" cy="772.7524977310154"></circle><circle r="5.106521939337334" cx="194.95353556227934" cy="173.3818435825813"></circle><circle r="7.157090673025044" cx="229.1614789245426" cy="292.4911736912197"></circle><circle r="10.874579155333873" cx="102.19583739363158" cy="425.4153393233558"></circle><circle r="5.22532246838968" cx="513.2585729413921" cy="309.31002709159463"></circle><circle r="7.022039128734434" cx="68.03438081078338" cy="783.6889644926769"></circle><circle r="4.4808429376836685" cx="438.5226096713007" cy="402.8079091992298"></circle><circle r="3.0697212074623184" cx="317.6830666667946" cy="574.3338769708731"></circle><circle r="7.707804913635845" cx="18.16514657025275" cy="91.98398872758496"></circle><circle r="7.747531888377797" cx="350.64851199133005" cy="643.748388917918"></circle><circle r="7.273242211675562" cx="402.26149876155864" cy="720.1542010190959"></circle><circle r="5.36599559106895" cx="409.2256044700023" cy="352.00475369231617"></circle><circle r="5.384297811133912" cx="9.380054861949013" cy="58.58636375879026"></circle><circle r="3.6311743185750034" cx="519.8302278944032" cy="458.72820241421744"></circle><circle r="7.23633402708403" cx="477.8242805206094" cy="106.52151798926371"></circle><circle r="4.329625617705391" cx="500.7450758469592" cy="38.98979704608754"></circle><circle r="4.537840303908703" cx="584.2926633801609" cy="269.26277950809384"></circle><circle r="5.978822102216427" cx="104.30884581352694" cy="558.5051228583551"></circle><circle r="4.183738233655634" cx="667.437914580525" cy="508.800717956019"></circle><circle r="4.081589020872513" cx="786.1823789768721" cy="581.343998298859"></circle><circle r="5.303818915991365" cx="293.8640666651088" cy="255.11822889480266"></circle><circle r="6.4335325479348295" cx="553.4021072626" cy="95.89079770682856"></circle><circle r="6.923012090535654" cx="753.9773467139161" cy="464.72929506720135"></circle><circle r="5.990834532958051" cx="454.6025388188258" cy="577.7791365603244"></circle><circle r="6.5462926969582185" cx="134.91838994805985" cy="52.22048690338037"></circle><circle r="6.052069302409457" cx="179.833650527286" cy="591.7399080027288"></circle><circle r="6.354552661969033" cx="750.532181990198" cy="784.8230343718997"></circle><circle r="7.032630363615536" cx="135.25639085538796" cy="579.8793329057673"></circle><circle r="4.886138401135967" cx="200.34816653946777" cy="562.7766032839363"></circle><circle r="9.288180945576336" cx="250.02561745208192" cy="334.38628003640895"></circle><circle r="5.073004061751448" cx="489.46857422264594" cy="277.2542064440831"></circle><circle r="6.897072003427846" cx="91.38498379081418" cy="349.7453507077143"></circle><circle r="6.144935274060865" cx="680.1473310515327" cy="430.5168754508021"></circle><circle r="6.68408394775158" cx="283.85316956261494" cy="317.78714725332566"></circle><circle r="6.175479051375772" cx="455.33948100036173" cy="54.510301623764434"></circle><circle r="6.030014815201694" cx="587.4536838785448" cy="390.20391520247085"></circle><circle r="7.955045364542563" cx="262.7406471349564" cy="724.1962884361288"></circle><circle r="6.263319680897265" cx="587.6523022741284" cy="74.83181531263904"></circle><circle r="4.60492312450831" cx="144.35769442629837" cy="315.59036578694526"></circle><circle r="2.5000218431667216" cx="44.937739711122774" cy="689.6084600575982"></circle><circle r="9.544791883835076" cx="195.48401004087648" cy="743.0825125674095"></circle><circle r="8.713878381387826" cx="79.32115503274954" cy="659.914838097572"></circle><circle r="7.33231413025849" cx="151.78199727036647" cy="615.7735591687335"></circle><circle r="3.786945473451924" cx="559.3048138102001" cy="52.61310779708189"></circle><circle r="7.354629383132095" cx="648.653050426302" cy="409.4978399374202"></circle><circle r="8.931354229854595" cx="212.7858041537339" cy="466.44986359031697"></circle><circle r="5.062311472165857" cx="551.4972383257564" cy="567.4819355823604"></circle><circle r="5.059724178293834" cx="541.5059473092134" cy="132.78946906908206"></circle><circle r="3.5549072950965437" cx="789.8601485010388" cy="546.6115751462567"></circle><circle r="3.820075311925473" cx="209.22905101644315" cy="110.0765626290329"></circle><circle r="4.959072536886417" cx="697.0119410211407" cy="209.37531256641475"></circle><circle r="5.842215848427431" cx="139.82133866004347" cy="254.8764062201444"></circle><circle r="6.274341710173511" cx="252.73032084560268" cy="96.73220814506863"></circle><circle r="7.3265489540537025" cx="701.5309956404121" cy="505.00269117228186"></circle><circle r="6.720249075938588" cx="214.67337430351114" cy="188.80551539060104"></circle><circle r="6.188028166109069" cx="440.2982537241298" cy="316.3426708590938"></circle><circle r="4.622811308174969" cx="107.2898367026802" cy="237.09186679840022"></circle><circle r="7.039285674241187" cx="49.99310741804394" cy="379.1519452098621"></circle><circle r="6.116073754104487" cx="708.1418398782434" cy="615.545693293612"></circle><circle r="8.864321675027604" cx="285.62335348421647" cy="69.97990565934238"></circle><circle r="6.732807584116937" cx="630.5622102365948" cy="189.73233733815186"></circle><circle r="6.327937657423392" cx="667.515460293355" cy="783.729266461779"></circle><circle r="4.694458985399484" cx="603.3616689490597" cy="786.0489599433394"></circle><circle r="10.626970744705257" cx="149.58290263640592" cy="533.7705002988049"></circle><circle r="4.65160514461517" cx="743.7349881220304" cy="501.01469714551433"></circle><circle r="6.757778412639387" cx="30.712708526477417" cy="419.1851824434656"></circle><circle r="5.443726212516657" cx="431.41676274265376" cy="266.68940058560275"></circle><circle r="6.433112946390195" cx="337.9016683499529" cy="471.17055829591686"></circle><circle r="3.7923919359366103" cx="471.6705905860422" cy="750.0100411967508"></circle><circle r="4.864675691038793" cx="494.39268798732536" cy="379.1303012586989"></circle><circle r="7.240820264795687" cx="267.717357249655" cy="214.47026749068672"></circle><circle r="6.99996127443818" cx="659.9916959378457" cy="712.338325442443"></circle><circle r="9.003195842247656" cx="640.7378001080504" cy="670.0698625533181"></circle><circle r="7.357520805936937" cx="624.9253652994532" cy="622.8054786272057"></circle><circle r="7.8425120931480325" cx="412.0568621297824" cy="590.3337040837931"></circle><circle r="7.565181880672499" cx="439.6637485999603" cy="661.7341209460451"></circle><circle r="3.9460545840824484" cx="553.915324435316" cy="12.341845184885297"></circle><circle r="6.350940282163819" cx="557.831756996313" cy="482.78684661743034"></circle><circle r="8.838938179608768" cx="375.2167900551195" cy="437.1588230417033"></circle><circle r="5.910418901646695" cx="60.20160933640105" cy="307.1735587511891"></circle><circle r="4.301919686053055" cx="659.7118174014462" cy="105.85776513949116"></circle><circle r="8.338535059510848" cx="318.6979613778731" cy="516.0842126335035"></circle><circle r="4.3379199371890085" cx="245.30939852601568" cy="592.3894229355145"></circle><circle r="4.281669407560162" cx="422.1174711177998" cy="52.27680362773704"></circle><circle r="5.627033151796854" cx="272.98783763505656" cy="577.1971978021427"></circle><circle r="6.8678197158120975" cx="562.0884596586109" cy="595.6018146164415"></circle><circle r="4.344383941772863" cx="236.72746458036076" cy="119.45362853111193"></circle><circle r="4.164499773629155" cx="697.7195364413955" cy="294.09725964121947"></circle><circle r="6.1603267028206234" cx="22.109035972665268" cy="470.3163490431511"></circle><circle r="5.023697027621012" cx="123.42261346175023" cy="650.573583140865"></circle><circle r="5.063248415114684" cx="516.622731791181" cy="564.4358298961548"></circle><circle r="6.236109320327298" cx="650.6961586000135" cy="754.2240226517542"></circle><circle r="5.735669256758515" cx="79.49425405441313" cy="180.35587594119974"></circle><circle r="4.597275798418559" cx="231.5612595365237" cy="376.2286826230791"></circle><circle r="2.9622900292578027" cx="745.1522108679204" cy="596.3047565666699"></circle><circle r="5.1661155056925665" cx="537.2402508811767" cy="56.9053404137841"></circle><circle r="6.284773553108126" cx="141.96733664292856" cy="111.84585816917983"></circle><circle r="9.073497091035147" cx="780.2453427691773" cy="20.58216345525691"></circle><circle r="5.916866491949736" cx="211.05617230039775" cy="312.6852924588452"></circle><circle r="5.185148654779076" cx="582.7528303259213" cy="315.5944706995181"></circle><circle r="6.31625451978712" cx="518.55258496613" cy="720.6771167564392"></circle><circle r="8.125641929382711" cx="506.5009359934393" cy="633.1954876869403"></circle><circle r="6.198619021640914" cx="783.9880020277391" cy="126.71889001831623"></circle><circle r="5.082075000839673" cx="750.335265096229" cy="253.09780914634277"></circle><circle r="4.208471371472355" cx="680.451521647142" cy="13.987420308613203"></circle><circle r="5.616973805285896" cx="60.89364144661518" cy="705.3655105810387"></circle><circle r="4.587795532871973" cx="352.03050648844885" cy="336.5344012679409"></circle><circle r="6.027358182176846" cx="693.1528237988646" cy="82.02519298882805"></circle><circle r="6.986150536174185" cx="66.3441591101875" cy="243.05270345778177"></circle><circle r="7.510160116092625" cx="378.938589468732" cy="319.7597123480191"></circle><circle r="5.046547209780558" cx="501.95762670821665" cy="12.051601221352534"></circle><circle r="9.66703913569215" cx="277.11009094636086" cy="444.1816536665571"></circle><circle r="6.108809518825498" cx="530.1783638680514" cy="79.95186892356918"></circle><circle r="8.85410888068568" cx="558.6269659493065" cy="165.49957788540772"></circle><circle r="4.192725852908721" cx="44.6343673126467" cy="127.27711581338193"></circle><circle r="6.641535832386856" cx="262.59909976799855" cy="389.0936274266259"></circle><circle r="5.647197384343615" cx="21.826461196974382" cy="778.1987164392143"></circle><circle r="4.291407130776348" cx="628.9764921136991" cy="732.5753096289146"></circle><circle r="3.26458784756613" cx="406.57419581179306" cy="531.7461993770937"></circle><circle r="7.83538032684959" cx="695.8674046902374" cy="648.4537293779231"></circle><circle r="8.297180176914097" cx="623.386818615221" cy="442.00522243304493"></circle><circle r="9.30615920158833" cx="391.4182916839708" cy="627.8554445579043"></circle><circle r="2.925364392650335" cx="695.0841877193448" cy="186.1066852862432"></circle><circle r="5.894235557160858" cx="551.828025257984" cy="264.4796456809037"></circle><circle r="8.93824934431281" cx="679.315603849959" cy="373.065687585385"></circle><circle r="4.942487410844604" cx="787.8979440122681" cy="741.5720481920503"></circle><circle r="4.7359326961921075" cx="432.5838043004921" cy="452.2546973110297"></circle><circle r="3.980141973887504" cx="704.2061063807048" cy="452.66877230805073"></circle><circle r="5.135170796345015" cx="381.5881447896626" cy="580.6541299580095"></circle><circle r="2.635789434873353" cx="755.0337227045043" cy="614.1435160287377"></circle><circle r="5.441809002417931" cx="263.9027162848632" cy="532.8759635852509"></circle><circle r="5.410068934317206" cx="329.76571518877546" cy="545.4506823339317"></circle><circle r="5.4553363331842055" cx="619.0407116544799" cy="757.7988437419529"></circle><circle r="7.069380837581182" cx="77.97827965788443" cy="138.44507652650495"></circle><circle r="5.072571428619111" cx="108.80388611169772" cy="763.7332968283212"></circle><circle r="8.830738878890315" cx="509.839392941828" cy="166.8793459552921"></circle><circle r="4.980343015097391" cx="431.0048515949025" cy="708.6546081033288"></circle><circle r="5.760766535215685" cx="404.94077868136503" cy="11.985169749579848"></circle><circle r="6.06604595267181" cx="748.6195682583655" cy="541.4116658664964"></circle><circle r="8.814517121958504" cx="734.9512234523739" cy="72.45330772403116"></circle><circle r="10.829177430472047" cx="133.48872596879156" cy="480.002400048307"></circle><circle r="6.1964352085394525" cx="369.8362702475702" cy="736.7728931020669"></circle><circle r="6.742358401231959" cx="555.8263514273341" cy="349.0890472840645"></circle><circle r="5.438941658528812" cx="511.1649834196591" cy="601.4005157688523"></circle><circle r="4.837637261448263" cx="743.15821712891" cy="438.94368176241403"></circle><circle r="5.601752187157432" cx="727.3445771619783" cy="292.723187510473"></circle><circle r="8.366111833413257" cx="475.15656650475216" cy="648.8921753273055"></circle><circle r="10.840294330513244" cx="162.31818070248767" cy="23.851515360953442"></circle><circle r="7.06856738759987" cx="731.17795067369" cy="567.2588408998587"></circle><circle r="3.4352294772293095" cx="405.5681431314047" cy="275.49271201234916"></circle><circle r="5.327027188771712" cx="192.57156563288163" cy="421.57221134431745"></circle><circle r="10.019702899846337" cx="695.035563007065" cy="686.3521821431764"></circle><circle r="5.37796919497841" cx="12.630347452403223" cy="727.8953961257491"></circle><circle r="3.55038780347266" cx="89.4921873981581" cy="113.68735457375057"></circle><circle r="4.790636663035661" cx="405.60772107201575" cy="84.25283685018492"></circle><circle r="5.598226371431321" cx="617.9188124684429" cy="698.2096281402154"></circle><circle r="8.235644373088988" cx="17.21295413429205" cy="360.0951314130653"></circle><circle r="9.906224590041372" cx="288.4489557131307" cy="494.3456021842654"></circle><circle r="8.1668898495686" cx="352.1465960819097" cy="511.81032301831675"></circle><circle r="5.567106559937202" cx="295.74331624118366" cy="572.6633582957242"></circle><circle r="3.9718985939928717" cx="601.8531167575649" cy="732.3845243018515"></circle><circle r="3.743453702373011" cx="153.014199437251" cy="366.5284192380237"></circle><circle r="6.096531146986732" cx="91.70159404687801" cy="85.75431902624057"></circle><circle r="4.462908723402182" cx="571.0523660473932" cy="456.7997323098732"></circle><circle r="5.326483743877382" cx="605.2224000064195" cy="40.23330575550129"></circle><circle r="5.110028505318581" cx="554.286276468094" cy="631.286143115086"></circle><circle r="10.578149455550871" cx="188.4260600357992" cy="508.1870622721546"></circle><circle r="2.6093719812920066" cx="720.9159156587625" cy="9.964254053595573"></circle><circle r="6.822705025593495" cx="293.15131570462796" cy="543.82012601186"></circle><circle r="4.421130820422102" cx="665.9047737905075" cy="169.17845250802574"></circle><circle r="3.942837578697384" cx="621.9166396432555" cy="510.5283816351501"></circle><circle r="7.288469409806796" cx="135.41950307459607" cy="783.990813549392"></circle><circle r="8.988366283846409" cx="17.397108533220866" cy="233.07521730135608"></circle><circle r="5.943372607826319" cx="583.838442599572" cy="701.9630284347724"></circle><circle r="9.947389855495558" cx="618.0446720462445" cy="325.35535365680255"></circle><circle r="6.7641186321908195" cx="595.6036229147122" cy="419.07493746074334"></circle><circle r="7.7791496232996575" cx="190.37024306189838" cy="663.855132589965"></circle><circle r="5.18015358433344" cx="190.0948750861295" cy="220.40915810377592"></circle><circle r="6.181913422043004" cx="150.14798375174118" cy="219.65117726211156"></circle><circle r="5.475106220001681" cx="341.2240135488807" cy="713.0880432006921"></circle><circle r="5.546068129373478" cx="428.2108996886743" cy="225.99352385067638"></circle><circle r="7.441889454323252" cx="620.3224072939934" cy="97.39424940736279"></circle><circle r="4.468339097402488" cx="31.392462913361367" cy="741.3257968522493"></circle><circle r="4.335147717966775" cx="377.8295037695585" cy="362.2225440423409"></circle><circle r="5.456800272463332" cx="581.990587194029" cy="555.0271799028512"></circle><circle r="6.112265275792224" cx="125.71569828387035" cy="186.74737934787"></circle><circle r="6.6840430801899835" cx="472.20626411322894" cy="479.4783354154266"></circle><circle r="5.361180734836873" cx="33.521725635708194" cy="563.0500541133725"></circle><circle r="6.193611819149492" cx="750.6391511292452" cy="34.88567436380406"></circle><circle r="8.512257143638978" cx="338.27339724820064" cy="302.5151764988876"></circle><circle r="2.8489640912064322" cx="445.4029954109619" cy="8.878746381879123"></circle><circle r="5.0357912774474025" cx="60.59091880621099" cy="73.98529993981623"></circle><circle r="3.9564420263998685" cx="786.6701062901943" cy="375.29436010510676"></circle><circle r="7.423147104432977" cx="88.21015886120628" cy="617.4539909036664"></circle><circle r="9.754718937482496" cx="310.9941020117154" cy="136.46638627712147"></circle><circle r="4.848906594117649" cx="356.6602717233073" cy="45.096405419882025"></circle><circle r="10.78055366573998" cx="676.677789393576" cy="556.4846456243089"></circle><circle r="4.727692874098398" cx="316.2171461765383" cy="49.17875128120781"></circle><circle r="5.948279184410953" cx="227.446357103173" cy="522.8578252438417"></circle><circle r="7.125509848956449" cx="761.0409530382692" cy="164.5407565884127"></circle><circle r="3.7198519563402095" cx="556.6725069443686" cy="535.069840591895"></circle><circle r="3.2755699464912453" cx="666.8428565590854" cy="138.67232459464708"></circle><circle r="6.712354757897582" cx="724.7039203571238" cy="473.0672993189864"></circle><circle r="5.537106327483913" cx="765.5501942629969" cy="633.2486471782938"></circle><circle r="6.979293066064354" cx="86.00725743054477" cy="275.37064692805563"></circle><circle r="5.172774974333865" cx="306.73400801914244" cy="746.5068909089755"></circle><circle r="7.075012717029756" cx="305.36083518498384" cy="628.2951485400552"></circle><circle r="5.981652604895907" cx="607.7133629749665" cy="144.39875932265358"></circle><circle r="4.737946407739324" cx="31.492340456086616" cy="321.2178758592802"></circle><circle r="4.542656327650912" cx="10.708120326530077" cy="657.739308499794"></circle><circle r="7.196496673665618" cx="98.45778265344825" cy="205.93867463337472"></circle><circle r="5.629297841231628" cx="83.6745862284316" cy="529.0963438783114"></circle><circle r="6.24150943364082" cx="390.80598719835194" cy="29.677685180374514"></circle><circle r="4.993132067791675" cx="499.50729701523653" cy="59.98847983399863"></circle><circle r="4.334962105919917" cx="94.30558745783917" cy="725.6642635996235"></circle><circle r="4.090471505488224" cx="175.6997596022117" cy="86.71009639429253"></circle><circle r="6.860717475558191" cx="372.56412498744254" cy="216.42135298908434"></circle><circle r="8.001234963944572" cx="160.5244120263707" cy="282.8353301802793"></circle><circle r="3.886470394158985" cx="788.2803913490139" cy="784.3892340101823"></circle><circle r="5.534104254696474" cx="173.18246565037995" cy="337.7462478680215"></circle><circle r="4.838604623272142" cx="508.79797438635046" cy="417.4470826970278"></circle><circle r="7.1110181421694225" cx="383.0570373381056" cy="183.25932714783966"></circle><circle r="7.656313020319677" cx="282.1873064398805" cy="170.20779762350398"></circle><circle r="9.163976295287538" cx="107.13447835297552" cy="695.4057554544647"></circle><circle r="4.8784526473214385" cx="175.5320654664585" cy="111.13305529194753"></circle><circle r="8.539191231687902" cx="541.766739766848" cy="685.7766777773728"></circle><circle r="4.1948521147661495" cx="319.718403558645" cy="392.0473498873361"></circle><circle r="4.408067735793629" cx="786.3363000312144" cy="445.99199157577306"></circle><circle r="4.992943449928497" cx="628.8465432692731" cy="56.262109762419456"></circle><circle r="6.786253531231537" cx="514.6461092007983" cy="486.9050882896777"></circle><circle r="5.053024438054699" cx="108.52858583120808" cy="64.80104419976729"></circle><circle r="4.1961814988079364" cx="220.26827943064183" cy="649.7662964710549"></circle><circle r="4.57722313921276" cx="338.09667930393897" cy="225.92345890233295"></circle><circle r="5.143788841147216" cx="219.36738249750528" cy="610.0316936556023"></circle><circle r="6.8353121848571226" cx="470.25239236212985" cy="19.416663833223154"></circle><circle r="3.1818603320152103" cx="308.23313021021994" cy="598.1811883286701"></circle><circle r="3.0168216617214147" cx="334.7191382731808" cy="573.0949155607058"></circle><circle r="6.693272814920395" cx="169.03579083335114" cy="184.76792449043643"></circle><circle r="4.24093773307588" cx="595.9791312840775" cy="458.9779364320241"></circle><circle r="5.122769196304967" cx="275.6836067006755" cy="656.8496829206022"></circle><circle r="5.074070855333735" cx="529.0429725337436" cy="25.569578476891873"></circle><circle r="3.9501668602635247" cx="726.6271313284228" cy="262.8728883752598"></circle><circle r="7.6310236615196185" cx="240.2027363770367" cy="174.26562255000007"></circle><circle r="3.7169624882457346" cx="422.6500938812769" cy="515.9334925652643"></circle><circle r="5.2364118761968905" cx="663.2231476256125" cy="640.2520833793338"></circle><circle r="5.081813236190493" cx="715.3083904298057" cy="534.4647516677011"></circle><circle r="6.671719194176662" cx="546.9532963369037" cy="312.2441962085928"></circle><circle r="6.182445332630461" cx="45.04576710665117" cy="646.8889108051254"></circle><circle r="6.263009681916191" cx="657.124372390836" cy="459.8550351401312"></circle><circle r="5.467246750262403" cx="154.80163181143232" cy="401.5146472020492"></circle><circle r="7.39324866696778" cx="359.4398735774306" cy="404.3768098832136"></circle><circle r="6.741612528690772" cx="657.3217167923391" cy="306.5508130506578"></circle><circle r="7.062872091152847" cx="119.51030236660863" cy="615.0580957964773"></circle><circle r="7.350563046281477" cx="178.1644119247309" cy="633.1262195339453"></circle><circle r="8.511440087977928" cx="176.6447690612239" cy="465.4710289293078"></circle><circle r="4.104966503209044" cx="245.57269166975465" cy="418.8946599341109"></circle><circle r="3.2793243983012776" cx="488.39373072969767" cy="728.4416385794294"></circle><circle r="7.434760021711426" cx="20.647697652592985" cy="613.306024481533"></circle><circle r="6.771332830934068" cx="779.8915963870542" cy="324.86552691864125"></circle><circle r="5.368231685299719" cx="10.625094128622283" cy="305.14428623105226"></circle><circle r="4.90458007382295" cx="543.6028898972794" cy="448.18072993025913"></circle><circle r="5.538228069511679" cx="291.33945792402227" cy="405.0312820626585"></circle><circle r="6.354497910122047" cx="696.5343148789659" cy="320.8248851276172"></circle><circle r="5.753106604187662" cx="210.1552021393736" cy="21.69501259412968"></circle><circle r="7.401685166145478" cx="318.367294687566" cy="16.46419162578455"></circle><circle r="2.882641076776155" cx="678.987356733773" cy="279.0090845362175"></circle><circle r="6.4411177492704725" cx="534.6474817687372" cy="207.2487291083826"></circle><circle r="7.447807173712484" cx="639.3972426249175" cy="137.19093005544866"></circle><circle r="8.638996026410226" cx="470.02321847741325" cy="224.74927725170298"></circle><circle r="4.656127821359875" cx="370.5243530746137" cy="544.9561634684158"></circle><circle r="5.305752717796305" cx="404.10782875997523" cy="670.7884868037861"></circle><circle r="6.325131319973604" cx="143.46536245647428" cy="80.39286812497029"></circle><circle r="4.818966801127451" cx="120.44255534249994" cy="376.2899628616742"></circle><circle r="2.8054182758555184" cx="706.8973875121844" cy="123.54530532797197"></circle><circle r="4.41564543126711" cx="556.0895545828956" cy="762.8920393126832"></circle><circle r="6.622008377763079" cx="601.3873383323138" cy="529.918480978528"></circle><circle r="4.395204302826887" cx="648.7968280465667" cy="598.8718449963369"></circle><circle r="9.865964579680481" cx="249.52364194126275" cy="477.32944558153207"></circle><circle r="7.898983284202948" cx="14.946091756095905" cy="531.2129346990279"></circle><circle r="3.596929703918575" cx="376.3424219459502" cy="703.0369030263981"></circle><circle r="6.659489311068853" cx="439.9697641967711" cy="618.8709636437702"></circle><circle r="6.408739588728897" cx="721.0520214795736" cy="752.7998173804119"></circle><circle r="3.3202221295981302" cx="628.9940628184285" cy="792.8715326739941"></circle><circle r="6.949921974799358" cx="706.566459710024" cy="784.2397890143224"></circle><circle r="6.252518878217727" cx="274.2599574944201" cy="687.1016583362659"></circle><circle r="4.31982963457395" cx="187.06028340642274" cy="62.76765478130004"></circle><circle r="3.52936532804092" cx="505.5031989216635" cy="87.35438363354879"></circle><circle r="5.610987610319197" cx="183.72787458271787" cy="306.3032217387035"></circle><circle r="6.139769019822403" cx="510.07942150738126" cy="786.8546989972988"></circle><circle r="3.826901073609128" cx="218.2047823736586" cy="90.09690782453745"></circle><circle r="4.666618630330222" cx="599.7446346794433" cy="12.132454004504456"></circle><circle r="4.936691165368613" cx="750.4585687537603" cy="371.58646337290037"></circle><circle r="4.058106753363202" cx="727.9023056174015" cy="111.2412456550093"></circle><circle r="4.055540762566748" cx="234.17343994621413" cy="147.66318383224458"></circle><circle r="4.663346135397479" cx="511.57786255585864" cy="119.8880408969152"></circle><circle r="5.028844595327309" cx="104.64973691956634" cy="160.83097589639468"></circle><circle r="4.967642237705544" cx="690.6516235813026" cy="141.03804385268762"></circle><circle r="6.26686797094999" cx="269.69116919632467" cy="613.943429405751"></circle><circle r="4.962013363450909" cx="319.3148360692867" cy="438.8487553821097"></circle><circle r="8.9042539577395" cx="336.13354433990844" cy="171.98265935657034"></circle><circle r="7.902627290955234" cx="433.71882768663556" cy="112.64400692331509"></circle><circle r="5.503559668941017" cx="575.4908757240265" cy="34.092129095191225"></circle><circle r="6.790747424969864" cx="484.7162714253932" cy="573.0958542781577"></circle><circle r="5.65571577589408" cx="177.3169077841708" cy="373.86494413690673"></circle><circle r="3.677221682372876" cx="779.1273492278469" cy="351.0629717116826"></circle><circle r="3.954930457591503" cx="402.35896278995943" cy="555.6813487636203"></circle><circle r="5.977283107841565" cx="677.1746288136483" cy="598.7866317895609"></circle><circle r="5.483010451370768" cx="133.29508420077295" cy="341.7092157182498"></circle><circle r="3.8233671045846176" cx="525.6232071976623" cy="534.8165529323514"></circle><circle r="8.237658226696897" cx="590.0203613043768" cy="185.94176595300127"></circle><circle r="7.796647684447688" cx="301.0072287204187" cy="289.2655395886606"></circle><circle r="6.576944766924475" cx="150.9133994680271" cy="433.9472103184413"></circle><circle r="5.1434052420828955" cx="200.51966088978384" cy="387.82355197740065"></circle><circle r="3.7396309332167563" cx="770.0150570855243" cy="536.5050421953418"></circle><circle r="4.544880500241247" cx="714.1034319102697" cy="346.0716565697244"></circle><circle r="7.194440156559606" cx="527.5192431341476" cy="752.9081418515462"></circle><circle r="7.374857538756329" cx="58.15346500674551" cy="343.1947193780092"></circle><circle r="4.8351827782837855" cx="318.78049465188974" cy="342.7655737982836"></circle><circle r="5.841882246228302" cx="223.13271718187687" cy="431.6185657250534"></circle><circle r="9.883895366001965" cx="196.22598959359374" cy="260.19435341922605"></circle><circle r="6.158938473130537" cx="754.4584230604277" cy="657.9779894070148"></circle><circle r="4.0026296429507076" cx="711.167611083911" cy="233.51182959929602"></circle><circle r="3.715441898433583" cx="708.5371051737548" cy="583.7397431649714"></circle><circle r="5.483857466543327" cx="235.33853949337544" cy="765.9709347397751"></circle><circle r="4.69764883238403" cx="641.8676184382688" cy="540.7984614784627"></circle><circle r="5.476643564343918" cx="323.43089762638647" cy="86.3994406633213"></circle><circle r="5.333558449771569" cx="85.94502649337495" cy="46.247485211907936"></circle><circle r="3.8605012144300224" cx="787.3370669213832" cy="611.7565129081187"></circle><circle r="2.7028339650624873" cx="706.299936699692" cy="271.43616537907303"></circle><circle r="4.883334862834544" cx="634.4755529081372" cy="776.203483807526"></circle><circle r="4.114093203665805" cx="248.991719267925" cy="643.0662982814796"></circle><circle r="8.946307135758564" cx="506.6889552758852" cy="234.6093409895345"></circle><circle r="3.5906817513007745" cx="387.64917115451493" cy="763.268824854926"></circle><circle r="7.052266368436487" cx="617.5965939155944" cy="265.7693785955541"></circle><circle r="4.382952037150492" cx="523.9052053125085" cy="273.4871125381954"></circle><circle r="5.875904908256307" cx="183.90705946623942" cy="148.3376894371275"></circle><circle r="7.117148101094042" cx="655.7934481477024" cy="347.1798557612199"></circle><circle r="8.657459813663639" cx="403.79062897474637" cy="386.9544603158059"></circle><circle r="7.471899834455303" cx="620.3263600474254" cy="569.7893381112891"></circle><circle r="3.5935059798967512" cx="77.8083080860542" cy="12.609683384743"></circle><circle r="4.988985098873945" cx="787.0160453286888" cy="650.5718240606575"></circle><circle r="7.903825184006039" cx="644.3109211677098" cy="20.531084117772885"></circle><circle r="3.4168304219474903" cx="115.63526906954309" cy="107.57355231703697"></circle><circle r="5.379135789204405" cx="410.70163794381136" cy="300.95839504246965"></circle><circle r="4.514548575152576" cx="482.9186136556751" cy="444.71612319190876"></circle><circle r="6.347807286303234" cx="779.9921970459978" cy="511.2907094949253"></circle><circle r="2.9724980761103925" cx="424.27761156627605" cy="8.799472192512532"></circle><circle r="5.092413430083503" cx="82.68438373886738" cy="391.22152992504465"></circle><circle r="8.92357836767678" cx="488.0564698057648" cy="523.2548473635563"></circle><circle r="7.629210397169166" cx="470.4269223107491" cy="410.01905511301254"></circle><circle r="3.8721250258326734" cx="436.6643904643083" cy="27.92075913550262"></circle><circle r="4.185567445899708" cx="752.0240226262777" cy="299.66407321929137"></circle><circle r="3.837846038859926" cx="566.1361549225585" cy="374.86875316273773"></circle><circle r="6.639862650913081" cx="747.4756795746675" cy="401.43619336994254"></circle><circle r="7.57500191213034" cx="297.79307216835383" cy="784.341055888438"></circle><circle r="3.89498062953938" cx="763.5750932686631" cy="571.4438261454342"></circle><circle r="7.391024648344796" cx="595.3832558264713" cy="594.8093881277701"></circle><circle r="3.3761353702943833" cx="56.24378996403718" cy="739.8207706826325"></circle><circle r="6.415471786036956" cx="14.132523450778189" cy="123.75623183903203"></circle><circle r="3.201486186002514" cx="671.2763749831562" cy="257.81311356666987"></circle><circle r="6.842764032744892" cx="452.86524788275307" cy="780.7921521615218"></circle><circle r="6.1415425425549595" cx="175.92809858966638" cy="701.1480415527258"></circle><circle r="3.5175993351558765" cx="726.9679995222037" cy="162.338035154506"></circle><circle r="5.543545825631371" cx="782.3551105897994" cy="480.8701642383033"></circle><circle r="5.499875127958304" cx="271.0981207800454" cy="14.917603899208885"></circle><circle r="5.674580895447245" cx="784.6114088717125" cy="405.1663212011986"></circle><circle r="3.723766170293485" cx="742.6867025504692" cy="683.5244915179468"></circle><circle r="3.669936473817033" cx="431.59317801732834" cy="553.7350043717239"></circle><circle r="9.264975766713055" cx="17.242749025360737" cy="185.19666947726097"></circle><circle r="8.96732611659961" cx="83.71246850089332" cy="470.39141090720676"></circle><circle r="11.241419854471733" cx="146.56831533062152" cy="736.5376540863692"></circle><circle r="9.101432543819193" cx="463.00929585083094" cy="180.25748344918182"></circle><circle r="4.9795872030266555" cx="57.26453842349456" cy="103.50208370255787"></circle><circle r="8.08778897478343" cx="231.27631254961773" cy="223.69240515829492"></circle><circle r="6.195634305721127" cx="283.49964737981435" cy="110.1903954660109"></circle><circle r="6.573969387395184" cx="362.4060888404222" cy="676.008942574173"></circle><circle r="4.390360934914" cx="713.8674156212614" cy="96.72119252738861"></circle><circle r="6.674083548202135" cx="378.14393109444273" cy="285.52058597952043"></circle><circle r="6.60099031371903" cx="582.424866273783" cy="666.6679349590704"></circle><circle r="6.345176476607319" cx="584.6607625085292" cy="226.62372766429502"></circle><circle r="4.344310469095508" cx="567.9688446790337" cy="729.1685876726672"></circle><circle r="7.814544181361029" cx="726.2358955469538" cy="713.332069771257"></circle><circle r="7.397453536193742" cx="576.6206674183524" cy="506.757603292932"></circle><circle r="5.136387921835267" cx="455.9497045589604" cy="692.210800056599"></circle><circle r="5.482701678597868" cx="687.380845911897" cy="114.69677079006183"></circle><circle r="6.119659286496105" cx="516.0400927945105" cy="346.4286061601595"></circle><circle r="6.179376419120867" cx="458.24150880049535" cy="279.7739909602658"></circle><circle r="6.484061801395425" cx="490.3956384379564" cy="761.8156123098919"></circle><circle r="9.028652629621769" cx="349.7149930382248" cy="607.4978065868368"></circle><circle r="7.126044410706509" cx="487.370741277876" cy="333.3214038347892"></circle><circle r="6.189777698048461" cx="743.4468004950123" cy="337.26850782331917"></circle><circle r="6.521354445949455" cx="468.8112221049479" cy="140.40937967558574"></circle><circle r="10.899259530539329" cx="224.34458740286624" cy="698.7008881308949"></circle><circle r="3.4252414018985906" cx="146.91408614147036" cy="168.3896422559093"></circle><circle r="9.161407231056902" cx="420.9008149259446" cy="173.03508743174976"></circle><circle r="6.144066801471164" cx="728.4953075580662" cy="642.4392358756912"></circle><circle r="5.974013166343319" cx="249.04597966823977" cy="69.72501443764597"></circle><circle r="4.242145203675985" cx="701.6813547317076" cy="161.60453006027217"></circle><circle r="4.348491037232822" cx="157.92409684823497" cy="136.3281125539293"></circle><circle r="6.449254107928166" cx="650.4329180462207" cy="219.51688284636487"></circle><circle r="7.319166744984417" cx="32.56824385071478" cy="273.08136610339693"></circle><circle r="5.793756895492855" cx="386.21289168305225" cy="513.7825260554336"></circle><circle r="7.347577852926914" cx="781.500286265745" cy="683.7332254110923"></circle><circle r="2.663053397004873" cx="31.751902879049783" cy="672.9013545134327"></circle><circle r="7.628009373639447" cx="241.44307316614334" cy="562.0778886392021"></circle><circle r="7.855918296354188" cx="684.7525843765063" cy="742.149054056474"></circle><circle r="4.450030341935836" cx="340.944296996997" cy="114.64294576613575"></circle><circle r="8.096035552477815" cx="710.0497489382401" cy="391.04071555890084"></circle><circle r="4.59880620356105" cx="580.0931605585939" cy="119.64033470262306"></circle><circle r="5.6135525485670765" cx="569.651424809908" cy="787.2405505264918"></circle><circle r="3.7499146846120914" cx="765.8200142668231" cy="427.227247497619"></circle><circle r="7.369712223769955" cx="685.8117766495614" cy="46.63537103324823"></circle><circle r="3.6809203285017733" cx="609.3652521100558" cy="483.1099724191652"></circle><circle r="3.321330843778242" cx="700.9457262478235" cy="252.08401532872747"></circle><circle r="4.851060064268598" cx="500.594954935224" cy="682.2068046617386"></circle><circle r="8.036598231002886" cx="779.7796009446288" cy="71.6469118435373"></circle><circle r="3.486192160972591" cx="354.55597672383124" cy="570.3812520085211"></circle><circle r="3.835043629820141" cx="466.1375758053347" cy="319.3187211447229"></circle><circle r="7.354862611990207" cx="221.21259043472693" cy="59.804787503504784"></circle><circle r="4.240029568155912" cx="533.5422232185781" cy="425.688782138889"></circle><circle r="6.150872094542681" cx="716.9813460165867" cy="426.0036264934361"></circle><circle r="3.789935431480497" cx="79.2129760054856" cy="753.3979855120218"></circle><circle r="5.405531997700232" cx="735.2939856504568" cy="210.59007110413975"></circle><circle r="8.988316851612293" cx="120.55455715527307" cy="291.26580618103606"></circle><circle r="4.419589226612564" cx="28.01983244024534" cy="11.024060427034248"></circle><circle r="4.404948502398936" cx="780.4666921302689" cy="712.1146314072782"></circle><circle r="6.326905800749016" cx="453.0270579391751" cy="521.2038779762833"></circle><circle r="7.4963525365230534" cx="189.36750716208655" cy="783.267219449781"></circle><circle r="7.82497611746583" cx="617.2327703531545" cy="372.8396850032921"></circle><circle r="3.326560438077775" cx="16.830317837168238" cy="32.46793106478695"></circle><circle r="4.339330290746185" cx="718.8900620737364" cy="36.754632643149336"></circle><circle r="6.698095867857024" cx="13.867904673954468" cy="695.9366934220309"></circle><circle r="6.773595641721695" cx="381.5840867523982" cy="477.34277331893105"></circle><circle r="6.0470032895912595" cx="457.0134088658217" cy="734.0350660325386"></circle><circle r="4.453389075821434" cx="391.2286037683482" cy="247.1196255213013"></circle><circle r="5.136607613840565" cx="340.95480551221993" cy="785.4895684093619"></circle><circle r="7.430265238572879" cx="145.84973563512048" cy="676.4151654082639"></circle><circle r="3.534627505348724" cx="34.05427037029929" cy="63.074656167361184"></circle><circle r="6.049519020604674" cx="593.6406451118988" cy="760.1586328107702"></circle><circle r="9.838636133367274" cx="49.825881001206966" cy="502.98558848145154"></circle><circle r="6.881326220853333" cx="646.1339015163373" cy="269.70581168978015"></circle><circle r="4.943400269277345" cx="307.26442392428567" cy="709.3582703801225"></circle><circle r="3.86692904228087" cx="536.5734061408251" cy="599.2200695908249"></circle><circle r="4.518920697584207" cx="409.41639593240694" cy="424.754629109628"></circle><circle r="5.33926656458522" cx="533.535128892733" cy="508.2047312738328"></circle><circle r="3.263167145691984" cx="722.7716602818891" cy="136.99015991222444"></circle><circle r="4.015373386177567" cx="528.4194024402626" cy="381.2019451290422"></circle><circle r="6.338399769150801" cx="423.9014239645338" cy="486.3663198996534"></circle><circle r="4.598716966810315" cx="208.59133521328886" cy="346.29608942645734"></circle><circle r="7.463581404365678" cx="53.09103946214742" cy="166.81176620194967"></circle><circle r="7.4820020059024595" cx="318.66449420136854" cy="668.8535354741456"></circle><circle r="3.44051846200606" cx="675.6607610041906" cy="236.33704275326727"></circle><circle r="3.581388894554462" cx="547.2222982390472" cy="403.6925863037502"></circle><circle r="5.400637327167777" cx="345.34043239010396" cy="371.01914439350884"></circle><circle r="5.61354466650882" cx="21.604395301243635" cy="152.10525455028434"></circle><circle r="3.6389160239060216" cx="405.8161412793311" cy="785.7129240857214"></circle><circle r="7.431731717591738" cx="454.2051859513587" cy="362.74739513068374"></circle><circle r="6.094807585105353" cx="429.0686049322836" cy="746.6695205654172"></circle><circle r="8.469232397115714" cx="777.4848800046815" cy="200.31302262817294"></circle><circle r="4.82245294851362" cx="784.0525781745154" cy="289.5559906609708"></circle><circle r="3.9903934467991093" cx="476.5603981470563" cy="707.7919920147131"></circle><circle r="6.604335214728504" cx="55.19559983274117" cy="35.292577814475266"></circle><circle r="4.703729539404918" cx="122.13326433807705" cy="139.47179174113273"></circle><circle r="4.880912728773778" cx="418.32265480084396" cy="329.2879738468808"></circle><circle r="3.972747015717942" cx="372.9056059035664" cy="70.02890473622892"></circle><circle r="5.408421091760215" cx="50.75101444164092" cy="209.76358871875325"></circle><circle r="5.169501636642855" cx="771.386303256925" cy="763.2136457745393"></circle><circle r="6.474143901324304" cx="117.76732073346852" cy="18.526638059413813"></circle><circle r="3.649319995809629" cx="367.2307008878631" cy="111.82904400936944"></circle><circle r="5.482374582740082" cx="285.89993270285163" cy="359.69262342868916"></circle><circle r="5.4376473455704915" cx="347.5528421693989" cy="264.069503773611"></circle><circle r="4.891174940585143" cx="256.2571017494418" cy="39.3537041782402"></circle><circle r="5.054854504331591" cx="564.2481109606082" cy="426.09190831914907"></circle><circle r="5.231708821531022" cx="206.08688987589335" cy="134.49101453051773"></circle><circle r="6.227650223125359" cx="469.03348577573934" cy="77.15985435324929"></circle><circle r="8.512167887756277" cx="252.48247097338609" cy="268.74790866220474"></circle><circle r="4.522948338266703" cx="345.81979654623103" cy="755.8167274547266"></circle><circle r="4.1492808104308265" cx="687.8646344457499" cy="475.3161735563648"></circle><circle r="10.86867606054091" cx="389.90528208353766" cy="136.66996951609894"></circle><circle r="6.706910268381562" cx="658.565337804219" cy="70.99247186006158"></circle><circle r="5.80708630956954" cx="782.7168559607413" cy="246.10570059363528"></circle><circle r="7.577219758125407" cx="592.4061437762409" cy="635.2599339640313"></circle><circle r="6.050861984617334" cx="61.38431743415699" cy="593.0453505365723"></circle><circle r="6.656781487701651" cx="261.64680235466517" cy="135.90096821673154"></circle><circle r="4.209675175047974" cx="751.9061939372746" cy="114.47958612799525"></circle></g></svg>