<svg xmlns="http://www.w3.org/2000/svg" version="1.1" xmlns:xlink="http://www.w3.org/1999/xlink" xmlns:svgjs="http://svgjs.dev/svgjs" width="1440" height="560" preserveAspectRatio="none" viewBox="0 0 1440 560"><g mask="url(&quot;#SvgjsMask1026&quot;)" fill="none"><rect width="1440" height="560" x="0" y="0" fill="rgba(240, 240, 240, 1)"></rect><path d="M1027 380L1403 756" stroke-width="10" stroke="url(&quot;#SvgjsLinearGradient1027&quot;)" stroke-linecap="round" class="BottomRight"></path><path d="M939 355L574 -10" stroke-width="10" stroke="url(&quot;#SvgjsLinearGradient1028&quot;)" stroke-linecap="round" class="TopLeft"></path><path d="M31 244L-155 58" stroke-width="10" stroke="url(&quot;#SvgjsLinearGradient1027&quot;)" stroke-linecap="round" class="BottomRight"></path><path d="M1061 228L642 -191" stroke-width="8" stroke="url(&quot;#SvgjsLinearGradient1028&quot;)" stroke-linecap="round" class="TopLeft"></path><path d="M323 540L469 686" stroke-width="6" stroke="url(&quot;#SvgjsLinearGradient1028&quot;)" stroke-linecap="round" class="TopLeft"></path><path d="M192 87L488 383" stroke-width="8" stroke="url(&quot;#SvgjsLinearGradient1028&quot;)" stroke-linecap="round" class="TopLeft"></path><path d="M788 309L1072 593" stroke-width="6" stroke="url(&quot;#SvgjsLinearGradient1027&quot;)" stroke-linecap="round" class="BottomRight"></path><path d="M1202 133L1535 466" stroke-width="8" stroke="url(&quot;#SvgjsLinearGradient1027&quot;)" stroke-linecap="round" class="BottomRight"></path><path d="M592 283L771 462" stroke-width="10" stroke="url(&quot;#SvgjsLinearGradient1027&quot;)" stroke-linecap="round" class="BottomRight"></path><path d="M1148 368L818 38" stroke-width="8" stroke="url(&quot;#SvgjsLinearGradient1027&quot;)" stroke-linecap="round" class="BottomRight"></path><path d="M968 138L1208 378" stroke-width="8" stroke="url(&quot;#SvgjsLinearGradient1027&quot;)" stroke-linecap="round" class="BottomRight"></path><path d="M672 465L326 119" stroke-width="10" stroke="url(&quot;#SvgjsLinearGradient1028&quot;)" stroke-linecap="round" class="TopLeft"></path><path d="M1082 110L755 -217" stroke-width="6" stroke="url(&quot;#SvgjsLinearGradient1027&quot;)" stroke-linecap="round" class="BottomRight"></path><path d="M1368 356L1726 714" stroke-width="8" stroke="url(&quot;#SvgjsLinearGradient1027&quot;)" stroke-linecap="round" class="BottomRight"></path><path d="M1244 104L1420 280" stroke-width="8" stroke="url(&quot;#SvgjsLinearGradient1027&quot;)" stroke-linecap="round" class="BottomRight"></path><path d="M1093 310L694 -89" stroke-width="8" stroke="url(&quot;#SvgjsLinearGradient1028&quot;)" stroke-linecap="round" class="TopLeft"></path><path d="M280 436L-24 132" stroke-width="8" stroke="url(&quot;#SvgjsLinearGradient1028&quot;)" stroke-linecap="round" class="TopLeft"></path><path d="M609 364L212 -33" stroke-width="10" stroke="url(&quot;#SvgjsLinearGradient1028&quot;)" stroke-linecap="round" class="TopLeft"></path><path d="M210 531L383 704" stroke-width="10" stroke="url(&quot;#SvgjsLinearGradient1028&quot;)" stroke-linecap="round" class="TopLeft"></path><path d="M338 145L548 355" stroke-width="8" stroke="url(&quot;#SvgjsLinearGradient1028&quot;)" stroke-linecap="round" class="TopLeft"></path><path d="M1098 335L1246 483" stroke-width="6" stroke="url(&quot;#SvgjsLinearGradient1027&quot;)" stroke-linecap="round" class="BottomRight"></path><path d="M1081 367L1408 694" stroke-width="8" stroke="url(&quot;#SvgjsLinearGradient1028&quot;)" stroke-linecap="round" class="TopLeft"></path><path d="M802 422L1060 680" stroke-width="6" stroke="url(&quot;#SvgjsLinearGradient1027&quot;)" stroke-linecap="round" class="BottomRight"></path><path d="M1008 276L636 -96" stroke-width="8" stroke="url(&quot;#SvgjsLinearGradient1028&quot;)" stroke-linecap="round" class="TopLeft"></path><path d="M429 247L833 651" stroke-width="10" stroke="url(&quot;#SvgjsLinearGradient1027&quot;)" stroke-linecap="round" class="BottomRight"></path><path d="M962 523L822 383" stroke-width="10" stroke="url(&quot;#SvgjsLinearGradient1027&quot;)" stroke-linecap="round" class="BottomRight"></path><path d="M469 337L191 59" stroke-width="6" stroke="url(&quot;#SvgjsLinearGradient1028&quot;)" stroke-linecap="round" class="TopLeft"></path><path d="M1041 246L771 -24" stroke-width="10" stroke="url(&quot;#SvgjsLinearGradient1028&quot;)" stroke-linecap="round" class="TopLeft"></path><path d="M272 287L-53 -38" stroke-width="8" stroke="url(&quot;#SvgjsLinearGradient1028&quot;)" stroke-linecap="round" class="TopLeft"></path><path d="M336 371L582 617" stroke-width="6" stroke="url(&quot;#SvgjsLinearGradient1027&quot;)" stroke-linecap="round" class="BottomRight"></path><path d="M1051 336L1392 677" stroke-width="6" stroke="url(&quot;#SvgjsLinearGradient1027&quot;)" stroke-linecap="round" class="BottomRight"></path><path d="M404 41L253 -110" stroke-width="6" stroke="url(&quot;#SvgjsLinearGradient1027&quot;)" stroke-linecap="round" class="BottomRight"></path><path d="M109 135L528 554" stroke-width="6" stroke="url(&quot;#SvgjsLinearGradient1027&quot;)" stroke-linecap="round" class="BottomRight"></path><path d="M462 500L790 828" stroke-width="10" stroke="url(&quot;#SvgjsLinearGradient1027&quot;)" stroke-linecap="round" class="BottomRight"></path><path d="M145 455L-51 259" stroke-width="8" stroke="url(&quot;#SvgjsLinearGradient1027&quot;)" stroke-linecap="round" class="BottomRight"></path><path d="M1194 446L1002 254" stroke-width="6" stroke="url(&quot;#SvgjsLinearGradient1027&quot;)" stroke-linecap="round" class="BottomRight"></path><path d="M692 503L1053 864" stroke-width="8" stroke="url(&quot;#SvgjsLinearGradient1027&quot;)" stroke-linecap="round" class="BottomRight"></path><path d="M392 405L728 741" stroke-width="8" stroke="url(&quot;#SvgjsLinearGradient1028&quot;)" stroke-linecap="round" class="TopLeft"></path><path d="M384 523L190 329" stroke-width="8" stroke="url(&quot;#SvgjsLinearGradient1027&quot;)" stroke-linecap="round" class="BottomRight"></path></g><defs><mask id="SvgjsMask1026"><rect width="1440" height="560" fill="#ffffff"></rect></mask><linearGradient x1="0%" y1="0%" x2="100%" y2="100%" id="SvgjsLinearGradient1027"><stop stop-color="rgba(239, 208, 158, 0)" offset="0"></stop><stop stop-color="rgba(239, 208, 158, 1)" offset="1"></stop></linearGradient><linearGradient x1="100%" y1="100%" x2="0%" y2="0%" id="SvgjsLinearGradient1028"><stop stop-color="rgba(239, 208, 158, 0)" offset="0"></stop><stop stop-color="rgba(239, 208, 158, 1)" offset="1"></stop></linearGradient></defs></svg>