<svg id="visual" viewBox="0 0 900 600" width="900" height="600" xmlns="http://www.w3.org/2000/svg" xmlns:xlink="http://www.w3.org/1999/xlink" version="1.1"><rect x="0" y="0" width="900" height="600" fill="#ffffff"></rect><defs><linearGradient id="grad1_0" x1="33.3%" y1="0%" x2="100%" y2="100%"><stop offset="20%" stop-color="#e8e8e8" stop-opacity="1"></stop><stop offset="80%" stop-color="#e8e8e8" stop-opacity="1"></stop></linearGradient></defs><defs><linearGradient id="grad2_0" x1="0%" y1="0%" x2="66.7%" y2="100%"><stop offset="20%" stop-color="#e8e8e8" stop-opacity="1"></stop><stop offset="80%" stop-color="#e8e8e8" stop-opacity="1"></stop></linearGradient></defs><g transform="translate(900, 0)"><path d="M0 324.5C-29.4 324.2 -58.7 323.8 -84 313.4C-109.3 303 -130.5 282.6 -154.5 267.6C-178.5 252.6 -205.4 243.1 -225.6 225.6C-245.8 208 -259.4 182.3 -272.8 157.5C-286.2 132.7 -299.5 108.7 -308.1 82.6C-316.7 56.5 -320.6 28.2 -324.5 0L0 0Z" fill="#efd09e"></path></g><g transform="translate(0, 600)"><path d="M0 -324.5C25.6 -312.1 51.2 -299.7 78.7 -293.6C106.2 -287.6 135.6 -287.9 159 -275.4C182.4 -262.9 199.9 -237.6 214.3 -214.3C228.6 -190.9 239.9 -169.6 258.1 -149C276.2 -128.4 301.2 -108.7 313.4 -84C325.7 -59.3 325.1 -29.6 324.5 0L0 0Z" fill="#efd09e"></path></g></svg>