<svg xmlns="http://www.w3.org/2000/svg" version="1.1" xmlns:xlink="http://www.w3.org/1999/xlink" xmlns:svgjs="http://svgjs.dev/svgjs" viewBox="0 0 800 800"><defs><filter id="ssspot-filter" x="-20%" y="-20%" width="140%" height="140%" filterUnits="objectBoundingBox" primitiveUnits="userSpaceOnUse" color-interpolation-filters="sRGB">
	<feTurbulence type="turbulence" baseFrequency="0.022 0.218" numOctaves="2" seed="98" stitchTiles="stitch" x="0%" y="0%" width="100%" height="100%" result="turbulence"></feTurbulence>
	<feGaussianBlur stdDeviation="0 3" x="0%" y="0%" width="100%" height="100%" in="turbulence" edgeMode="duplicate" result="blur"></feGaussianBlur>
	<feDisplacementMap in="SourceGraphic" in2="blur" scale="32" xChannelSelector="R" yChannelSelector="B" x="0%" y="0%" width="100%" height="100%" result="displacementMap"></feDisplacementMap>
</filter></defs><rect width="100%" height="100%" fill="#F5F5F5"></rect><g fill="	#D3D3D3" filter="url(#ssspot-filter)"><circle r="6.063757989011451" cx="192.3482138851633" cy="476.10389109562976"></circle><circle r="6.153104201220639" cx="187.0054794868875" cy="311.5403680662852"></circle><circle r="6.339571204957631" cx="350.4082741193759" cy="426.4685690086252"></circle><circle r="5.743832708236971" cx="110.88954797170595" cy="217.95980255732505"></circle><circle r="3.8763181272318454" cx="742.2410439836724" cy="182.52912644981885"></circle><circle r="8.729008550450121" cx="22.31218864234469" cy="583.0996076590886"></circle><circle r="5.528217400912439" cx="477.63188974749124" cy="482.3866162393654"></circle><circle r="7.100321123552048" cx="95.7151100460757" cy="153.50119021835118"></circle><circle r="6.356874776922894" cx="780.9782967868085" cy="443.8736253711177"></circle><circle r="4.728946875781996" cx="583.7253388435606" cy="556.769369134548"></circle><circle r="3.7848124996660877" cx="489.8978058774456" cy="504.92816272534003"></circle><circle r="5.686083692409989" cx="783.362717526805" cy="377.1559919463848"></circle><circle r="4.165720095369824" cx="708.2925971320337" cy="15.735928529727461"></circle><circle r="5.440024686280038" cx="522.6655496103591" cy="44.584662831870546"></circle><circle r="5.644025074198674" cx="210.9879926234472" cy="153.72472866230726"></circle><circle r="4.483693054694042" cx="522.5391926987841" cy="771.0851581113702"></circle><circle r="7.376631571506303" cx="358.0482037798874" cy="739.2392696963115"></circle><circle r="5.968871819303569" cx="291.36951700793827" cy="557.5714049569908"></circle><circle r="6.147655108541637" cx="383.5669800864927" cy="56.66504668861134"></circle><circle r="5.959873798743974" cx="434.48971474892124" cy="566.7972154757312"></circle><circle r="7.215399081824397" cx="135.1418917804931" cy="573.1157627448334"></circle><circle r="8.055536588737521" cx="378.80381471735353" cy="473.3459097587225"></circle><circle r="6.199827508544014" cx="401.665460221134" cy="731.0588963288105"></circle><circle r="8.618571190588721" cx="170.94116299842872" cy="401.70350124038544"></circle><circle r="5.23363506114209" cx="342.3743901820512" cy="42.17822370166185"></circle><circle r="6.568823354473301" cx="270.39136994346967" cy="441.8701807426627"></circle><circle r="6.655514582742603" cx="358.53670464767606" cy="148.1060516345071"></circle><circle r="4.145968104516157" cx="745.791679288551" cy="13.585651968693512"></circle><circle r="6.377941031096698" cx="762.2111375950565" cy="556.5571492782877"></circle><circle r="4.978924330785308" cx="655.278060149052" cy="405.5379737247254"></circle><circle r="4.228814854312196" cx="438.9454720891132" cy="46.628367604287206"></circle><circle r="4.655865115198285" cx="263.2307211320881" cy="181.29646126376667"></circle><circle r="9.678265243749445" cx="312.63820785370297" cy="440.9917435487181"></circle><circle r="9.80978102680865" cx="247.46330156287138" cy="655.623609559053"></circle><circle r="6.556770006717512" cx="691.26287853108" cy="720.3549941824919"></circle><circle r="7.198486201417625" cx="339.61565131163775" cy="335.46003523933257"></circle><circle r="3.7799305864413193" cx="526.8340832905697" cy="663.3926839397984"></circle><circle r="6.115577955348103" cx="275.5172109407864" cy="120.66082299215736"></circle><circle r="6.259290567637045" cx="726.5136930116514" cy="81.42488262227694"></circle><circle r="3.8084589041716472" cx="758.2518884776532" cy="74.25977261106763"></circle><circle r="5.919660887802269" cx="572.6464547088237" cy="53.086260141680555"></circle><circle r="5.853712636365004" cx="382.37125530114673" cy="224.76257330462056"></circle><circle r="4.044260490635047" cx="154.949604406298" cy="318.53873160695287"></circle><circle r="7.230602013922551" cx="783.859006061799" cy="260.0212236167505"></circle><circle r="6.937337853512417" cx="255.65755738899162" cy="616.7786594255906"></circle><circle r="5.9762454949451875" cx="368.0955468821282" cy="347.91592711062236"></circle><circle r="7.699990455608445" cx="152.52039043472328" cy="52.26899791256808"></circle><circle r="5.222394896044478" cx="567.7663774659782" cy="169.9384447979073"></circle><circle r="5.492446067064156" cx="225.8241731139446" cy="319.1108666573435"></circle><circle r="4.267244332095255" cx="426.769434199297" cy="330.6496559219603"></circle><circle r="4.251138122584188" cx="476.85913395164835" cy="685.547887478764"></circle><circle r="7.193254966855273" cx="762.8447421100495" cy="406.95243748565605"></circle><circle r="5.716138272623793" cx="785.5450124291075" cy="151.60058985922203"></circle><circle r="4.561356840767896" cx="407.52209689047834" cy="79.28838744389253"></circle><circle r="8.171586981402395" cx="70.24350831208889" cy="479.4528577473739"></circle><circle r="8.585870335867945" cx="516.3502983037442" cy="529.9345065015073"></circle><circle r="10.172726900768417" cx="149.76571496975598" cy="99.1696513284782"></circle><circle r="6.898767560741282" cx="606.2813334912771" cy="736.1746202890678"></circle><circle r="4.8652621046906965" cx="472.4987738694102" cy="77.67357442215696"></circle><circle r="6.545528170995153" cx="303.87479136778063" cy="22.069586493733468"></circle><circle r="9.005468193803022" cx="600.135172381934" cy="376.7135757116224"></circle><circle r="5.838432062356253" cx="153.66571308842092" cy="613.4444939875823"></circle><circle r="4.280608976676706" cx="638.957761517444" cy="703.308025365435"></circle><circle r="7.11721967987635" cx="614.6945771001843" cy="587.0512782916712"></circle><circle r="2.7857983209185795" cx="48.225524330743596" cy="468.66258078740225"></circle><circle r="4.967401716755347" cx="444.538678855656" cy="707.8164104343011"></circle><circle r="6.14830974416973" cx="700.8526567318642" cy="652.0878349899618"></circle><circle r="4.786523427363056" cx="671.350072746453" cy="485.697429988667"></circle><circle r="5.022271806590409" cx="508.1421298785894" cy="592.4304930435084"></circle><circle r="4.61834055032365" cx="171.69110808553847" cy="242.5534246106577"></circle><circle r="5.2989210244903315" cx="582.0920454624495" cy="589.8954400357661"></circle><circle r="7.365644514874295" cx="91.10551235321013" cy="649.5882920066363"></circle><circle r="4.658996022474341" cx="444.66891945957116" cy="89.453545348632"></circle><circle r="6.082322350941117" cx="655.2910895338483" cy="165.79541974650667"></circle><circle r="6.375219591182276" cx="581.6247162873366" cy="272.9390644443607"></circle><circle r="6.891118968754756" cx="595.3468786161233" cy="448.1585526656762"></circle><circle r="7.693319456725234" cx="17.41728696861636" cy="549.1780734219517"></circle><circle r="4.815068806516768" cx="641.2188494308377" cy="337.4465783054258"></circle><circle r="6.527083538718422" cx="47.739234764635604" cy="181.18992089456074"></circle><circle r="5.78609750613188" cx="582.2122131484273" cy="651.88992617687"></circle><circle r="4.942876050965638" cx="561.4457869542462" cy="389.2040225687975"></circle><circle r="3.364468253082501" cx="396.9774025687448" cy="649.1335761589943"></circle><circle r="6.490789417129004" cx="109.18160925430476" cy="485.9856156490794"></circle><circle r="6.076547329352419" cx="783.0807075505885" cy="684.8067253579153"></circle><circle r="5.999299974895143" cx="13.508403201149063" cy="27.333592097519347"></circle><circle r="4.69899723834013" cx="351.1807336164784" cy="387.5748346386554"></circle><circle r="6.749663201683772" cx="423.78175658292656" cy="537.8000383763358"></circle><circle r="8.337376578601496" cx="62.9562219264478" cy="426.09424147818896"></circle><circle r="6.672408047344337" cx="228.73123050202122" cy="119.18153765347488"></circle><circle r="8.666501204472574" cx="487.64510699074054" cy="249.64502504916652"></circle><circle r="7.327263211515749" cx="112.0046863268413" cy="627.3233269578882"></circle><circle r="4.472560235838876" cx="581.8572583890624" cy="621.120972725059"></circle><circle r="4.800862572238911" cx="594.0692314424259" cy="204.03262602923908"></circle><circle r="4.493159621269981" cx="69.77330353569361" cy="696.7741064740832"></circle><circle r="7.754653076646246" cx="598.496559001226" cy="498.1431018088948"></circle><circle r="4.60640704654485" cx="411.2992072942777" cy="627.3688012931531"></circle><circle r="5.438826853616424" cx="425.9747335050986" cy="784.5685126804361"></circle><circle r="4.86788883550477" cx="187.95738670517144" cy="359.68390944960083"></circle><circle r="6.006054291034172" cx="512.4216724380832" cy="325.7385853508209"></circle><circle r="8.824969167659543" cx="177.0851101822359" cy="133.19690089621173"></circle><circle r="7.431614003867745" cx="658.5396956426954" cy="313.205979107497"></circle><circle r="6.44955877877304" cx="27.70452413071816" cy="361.5626794816127"></circle><circle r="6.293848889016695" cx="548.6905682208786" cy="366.4948410438752"></circle><circle r="5.981576840183818" cx="542.892119815861" cy="631.1120451051875"></circle><circle r="6.773416478228226" cx="64.78286827661968" cy="750.9766106572346"></circle><circle r="4.235044658496959" cx="556.6527312764878" cy="533.6726771142045"></circle><circle r="6.40082989962665" cx="586.105210262709" cy="300.996611999844"></circle><circle r="4.562548027831539" cx="508.94804995946623" cy="72.9715118276677"></circle><circle r="5.966372040233926" cx="398.71850196537673" cy="704.3806475037885"></circle><circle r="3.7786467493858016" cx="408.8682484838288" cy="50.16445823961569"></circle><circle r="6.823215052927418" cx="309.5820586131399" cy="583.7903483529464"></circle><circle r="4.713752315442849" cx="621.6553658655953" cy="621.0454589915996"></circle><circle r="6.896001408208843" cx="507.53409757606346" cy="621.2647776857153"></circle><circle r="3.203528132719628" cx="689.4868953909192" cy="350.579097857211"></circle><circle r="3.9655798458505798" cx="70.3912450919236" cy="203.67503718471778"></circle><circle r="6.225432605454415" cx="706.1585630885018" cy="408.18986749660564"></circle><circle r="5.7703445650352085" cx="221.31930894817918" cy="363.7698952615885"></circle><circle r="8.26757465590396" cx="441.7113257028274" cy="744.3273753252392"></circle><circle r="4.5769086693625916" cx="539.2192824282074" cy="184.2220630420282"></circle><circle r="5.344192466377536" cx="464.4678076967662" cy="661.6621681950985"></circle><circle r="10.05028790511437" cx="638.0679101043628" cy="86.13064519534079"></circle><circle r="7.236763808183623" cx="141.20997234111672" cy="278.4433462641161"></circle><circle r="5.827485615819456" cx="215.17076726890542" cy="745.0283220594335"></circle><circle r="7.5280388145776325" cx="39.042145195667466" cy="508.09090068392135"></circle><circle r="5.745196571716722" cx="574.8286048690671" cy="106.02971699381379"></circle><circle r="5.1558412280314645" cx="361.30470685529815" cy="115.2358041308079"></circle><circle r="4.339626243942451" cx="22.452309771832383" cy="109.07998793572095"></circle><circle r="5.874050885628785" cx="161.6056158660909" cy="522.3825117607912"></circle><circle r="4.891292016088166" cx="379.88447873197924" cy="762.2755336304964"></circle><circle r="5.410999801369215" cx="13.373712428708025" cy="296.0352656347201"></circle><circle r="6.579781944810728" cx="676.057741977019" cy="609.685309835612"></circle><circle r="6.108167742701805" cx="323.8431489700829" cy="110.45225793412737"></circle><circle r="5.251116810292579" cx="402.53902994856804" cy="140.80096935093457"></circle><circle r="6.161707390813238" cx="534.6567690684051" cy="404.5610475387469"></circle><circle r="5.0746632737124315" cx="609.4724116811338" cy="219.47253711648187"></circle><circle r="8.302663028724268" cx="494.0818917625237" cy="439.47243086943206"></circle><circle r="7.124737664091317" cx="388.76991110507055" cy="441.6679065170049"></circle><circle r="5.637587086729084" cx="481.2567972110822" cy="39.92928780153259"></circle><circle r="5.506939569604926" cx="672.3189976911615" cy="46.52363819119743"></circle><circle r="5.736293294463948" cx="141.6958414871949" cy="17.710785828352133"></circle><circle r="4.312026421987119" cx="76.62382688902284" cy="343.7922698008272"></circle><circle r="4.3839798080935655" cx="708.7321156220806" cy="500.5075401419704"></circle><circle r="3.654466864417722" cx="520.5793609435752" cy="247.9388923208264"></circle><circle r="4.757096430983633" cx="100.11330858910735" cy="265.37075349642265"></circle><circle r="4.105173528073073" cx="98.13718177005941" cy="587.394820368287"></circle><circle r="6.086235023973696" cx="120.28795148796351" cy="529.0544152998218"></circle><circle r="5.628051241491088" cx="280.09092851170305" cy="45.58065165647688"></circle><circle r="3.4662247668744084" cx="378.26160405960246" cy="406.13752909024265"></circle><circle r="4.093992099269092" cx="709.3103609628763" cy="243.6151277575436"></circle><circle r="4.521025267980006" cx="451.470908524868" cy="15.857772861312233"></circle><circle r="3.8480008661055414" cx="417.9366320202535" cy="659.9526380106947"></circle><circle r="6.511219660699644" cx="677.6683329045139" cy="439.26278036344524"></circle><circle r="7.1788858068705945" cx="674.756690567593" cy="677.8633906682622"></circle><circle r="5.9485831770203355" cx="256.80093260482954" cy="388.2207200607542"></circle><circle r="4.210352450269201" cx="502.91990055235607" cy="651.8786493962244"></circle><circle r="6.546174498017942" cx="276.15955397793084" cy="525.173215412211"></circle><circle r="4.114376810107066" cx="103.49732023928841" cy="342.38970127713446"></circle><circle r="6.267387879722579" cx="756.1226136399604" cy="515.0576799544823"></circle><circle r="4.58836754456442" cx="651.0167820340292" cy="280.0229855008362"></circle><circle r="6.990280751714099" cx="743.5627845566759" cy="595.0040547482397"></circle><circle r="7.833450706969774" cx="355.0998420120193" cy="507.30461726907987"></circle><circle r="7.079965532288173" cx="224.42350704871856" cy="18.61380852478837"></circle><circle r="5.727952285312004" cx="376.5972066135627" cy="528.6101927224627"></circle><circle r="3.6135925852944943" cx="477.05518496239466" cy="611.6438118890044"></circle><circle r="8.128539501808476" cx="408.39665351861726" cy="502.9888694231847"></circle><circle r="7.919230477954299" cx="724.9012048245664" cy="697.4450333506891"></circle><circle r="6.925909036806423" cx="669.3168676212753" cy="517.6129239941719"></circle><circle r="5.544886956382103" cx="187.49619490979748" cy="24.8933556108987"></circle><circle r="5.858899140212454" cx="614.637555364064" cy="546.6782225465412"></circle><circle r="8.706695357237475" cx="509.3621338065218" cy="371.3449557018851"></circle><circle r="6.18294739861369" cx="569.5271638333336" cy="17.67857028245177"></circle><circle r="5.618268993173384" cx="121.23047978263584" cy="185.35709967245114"></circle><circle r="5.399031470427552" cx="210.3530909006063" cy="535.4938113052175"></circle><circle r="3.6871748927971195" cx="547.0846583303048" cy="131.9735779642793"></circle><circle r="5.048626305810321" cx="98.15765853080215" cy="554.6362596647286"></circle><circle r="3.4225716918651745" cx="14.461477543443626" cy="486.0947129934807"></circle><circle r="6.448521801624437" cx="241.70197618346467" cy="777.8580377066386"></circle><circle r="3.7032509495242723" cx="284.7576039646404" cy="153.501084115911"></circle><circle r="7.927923037425827" cx="672.6116298843633" cy="115.53861749857039"></circle><circle r="4.089120351570836" cx="742.9390577181858" cy="754.8158555401085"></circle><circle r="5.946138830165459" cx="145.49872717249102" cy="441.1140486190755"></circle><circle r="4.721272679466717" cx="527.478225676858" cy="15.199743427840378"></circle><circle r="4.170831776682584" cx="526.3099849446952" cy="459.64965938193086"></circle><circle r="8.97283551428057" cx="507.0136077817696" cy="108.1719380207773"></circle><circle r="5.790257161130786" cx="684.8561088475932" cy="780.6554235840996"></circle><circle r="4.97087411326477" cx="380.26357383785967" cy="619.519735635508"></circle><circle r="8.043237475336914" cx="783.0261457440467" cy="494.8832191059765"></circle><circle r="5.784054791862611" cx="460.553130951501" cy="286.9966634634752"></circle><circle r="5.710377851318281" cx="563.3333276617068" cy="220.61794573378683"></circle><circle r="5.090188060740464" cx="784.1286339956619" cy="57.73676615565648"></circle><circle r="7.532211905728023" cx="15.561434104281904" cy="698.2235514558807"></circle><circle r="5.360850513289427" cx="11.424644620412318" cy="517.5692639992311"></circle><circle r="4.334386423688964" cx="141.56920569744258" cy="786.8803278002333"></circle><circle r="4.299236771700784" cx="404.82647800588825" cy="414.4041484833662"></circle><circle r="5.099491251124213" cx="303.54904708888057" cy="300.98686620035164"></circle><circle r="3.079207597237849" cx="34.352677055536965" cy="266.48290084135243"></circle><circle r="4.632575526994292" cx="624.7853562398642" cy="252.0874774415358"></circle><circle r="7.5642815851296765" cx="46.837739663743456" cy="718.4959081795453"></circle><circle r="4.099442680401154" cx="489.7220025550362" cy="11.731946680519453"></circle><circle r="7.543673973654892" cx="515.0991532468526" cy="206.52899029404733"></circle><circle r="6.177320717129488" cx="590.9348149785944" cy="243.91565539385815"></circle><circle r="5.4001518527707715" cx="477.85584831747155" cy="211.86776251093153"></circle><circle r="3.5957813597897057" cx="316.96675317359967" cy="270.31951554955475"></circle><circle r="4.247930266203614" cx="582.0845041621927" cy="411.7483787605145"></circle><circle r="10.568753127339015" cx="404.86173627057786" cy="179.0134943750919"></circle><circle r="5.522736504670961" cx="725.4997166589643" cy="447.637377780214"></circle><circle r="4.384623160245798" cx="737.000664837087" cy="424.0361361327709"></circle><circle r="6.180547918523477" cx="617.1592704670937" cy="279.07928153173293"></circle><circle r="5.450549929521442" cx="741.9819023738054" cy="371.4213344181274"></circle><circle r="5.540444875391147" cx="283.65091485180704" cy="368.96099030215805"></circle><circle r="3.939946476613283" cx="409.21511697499966" cy="682.8322341835499"></circle><circle r="6.2229351307548715" cx="147.33611343537336" cy="172.2502571435669"></circle><circle r="9.802969694762307" cx="287.47971346345173" cy="83.8376858447103"></circle><circle r="3.3615009834120593" cx="47.98355412080519" cy="282.41422296202865"></circle><circle r="9.264362386374518" cx="20.945094268520076" cy="779.7944082815966"></circle><circle r="6.787933966377702" cx="558.0975853753596" cy="255.9117200613173"></circle><circle r="6.7441431052936665" cx="191.79292901007196" cy="181.3762025233742"></circle><circle r="5.955427823725753" cx="64.99887945294631" cy="257.91593781475046"></circle><circle r="7.019452950837064" cx="181.37324650047597" cy="74.31890129090363"></circle><circle r="6.410432406985629" cx="690.8669521140397" cy="264.84210689194606"></circle><circle r="5.263800671825527" cx="668.5515895211718" cy="359.42527866037693"></circle><circle r="5.298627844386164" cx="489.7184713670115" cy="300.95127728880937"></circle><circle r="5.2895967920568445" cx="378.4068770683451" cy="375.63130286129183"></circle><circle r="7.679274975044519" cx="57.990523729814605" cy="141.29856012414248"></circle><circle r="3.9931704409921824" cx="31.31199131800309" cy="460.2946336273795"></circle><circle r="6.511261534478917" cx="551.7906188800825" cy="76.52809375528474"></circle><circle r="8.822795749503015" cx="248.95791210841082" cy="75.52513865927453"></circle><circle r="7.526742370297379" cx="261.32063509535527" cy="17.44952913504713"></circle><circle r="5.480265974892056" cx="728.7175564861911" cy="43.59295537240417"></circle><circle r="3.5251408585159725" cx="466.4103062686998" cy="559.089170303562"></circle><circle r="4.170767295025821" cx="284.7025212167849" cy="605.90870443552"></circle><circle r="6.412508379064713" cx="328.22697380703875" cy="204.30135414352756"></circle><circle r="7.707749949415415" cx="15.574867951305404" cy="627.089260295722"></circle><circle r="5.357112202492514" cx="220.4920891248112" cy="247.8009968963669"></circle><circle r="6.039391283275047" cx="783.3558563624805" cy="188.31635008403367"></circle><circle r="4.696038498106916" cx="785.7633822356147" cy="105.10430769611526"></circle><circle r="9.360338136915754" cx="344.4785419949981" cy="654.9658618913958"></circle><circle r="9.272663071971959" cx="309.5621592702672" cy="632.1032689030211"></circle><circle r="4.382325820962681" cx="9.940541446085236" cy="267.4679048451261"></circle><circle r="4.556412520137434" cx="216.98569078522834" cy="280.70015359240506"></circle><circle r="6.603726726615831" cx="507.8416564133193" cy="145.2670200345095"></circle><circle r="7.299584135608264" cx="283.4249791651703" cy="210.06387266052127"></circle><circle r="6.366339725136472" cx="569.082880062352" cy="705.5242722898814"></circle><circle r="8.82420841337791" cx="462.4945586150989" cy="454.2428719319437"></circle><circle r="10.122864090588577" cx="190.23246949142387" cy="623.873477205825"></circle><circle r="4.570199028509326" cx="755.1085091578607" cy="117.59756125786006"></circle><circle r="5.52779196389626" cx="756.572069019997" cy="215.34480989847128"></circle><circle r="4.725230218498288" cx="97.14205810314593" cy="193.48368751491057"></circle><circle r="6.808118169883409" cx="550.6334166903366" cy="300.8281126392904"></circle><circle r="5.340213714618875" cx="398.50962110055474" cy="111.23081643552187"></circle><circle r="9.501835760950058" cx="176.93000732893194" cy="733.1411283000373"></circle><circle r="3.343202814998063" cx="11.94964602844572" cy="450.8028560292668"></circle><circle r="6.336671815520907" cx="409.45941858436396" cy="16.282965489187625"></circle><circle r="6.5438767043952435" cx="786.3590193205533" cy="221.38472302867035"></circle><circle r="5.010368125065491" cx="663.0140568177595" cy="15.269390369398476"></circle><circle r="8.797996638991" cx="130.78861254163613" cy="744.7706433050313"></circle><circle r="8.15189640399965" cx="658.7886420434031" cy="557.2765857667968"></circle><circle r="3.5133932299499953" cx="728.334214989963" cy="342.6810378298273"></circle><circle r="4.640585714034538" cx="408.5703204508479" cy="318.8233800020542"></circle><circle r="4.727255811858603" cx="536.9610205586415" cy="497.85695079460436"></circle><circle r="8.472516693295876" cx="750.3910894538201" cy="267.9221707843903"></circle><circle r="4.605212827874145" cx="18.932627250010732" cy="741.5079392987798"></circle><circle r="5.512282965517" cx="18.11501096639219" cy="137.52274023978768"></circle><circle r="5.986163476904169" cx="592.8129347837635" cy="683.1066057146678"></circle><circle r="4.718324886772207" cx="426.2202118707223" cy="285.23806289053465"></circle><circle r="5.932593940647317" cx="262.46429227271517" cy="332.91810665453977"></circle><circle r="3.0958758954083714" cx="162.5498971648191" cy="348.55612775618965"></circle><circle r="9.308994663403102" cx="112.94755395832372" cy="68.3634031068408"></circle><circle r="7.2402386199713735" cx="419.87602580808095" cy="462.2719477240434"></circle><circle r="3.992467057279612" cx="739.8988109075729" cy="785.2750988044066"></circle><circle r="8.077942694434835" cx="233.39859116536888" cy="455.11184536738585"></circle><circle r="5.649317921821591" cx="366.83273721961365" cy="309.7017014010801"></circle><circle r="7.6249450151359355" cx="215.6115601314852" cy="503.5014008810885"></circle><circle r="6.424799044816501" cx="722.9821520533537" cy="217.88350072816476"></circle><circle r="6.250543018222633" cx="778.2717457075513" cy="21.35012284824574"></circle><circle r="7.180421693469234" cx="224.0587863099808" cy="603.0719566902396"></circle><circle r="6.504764767544497" cx="76.99070345075675" cy="610.460727311903"></circle><circle r="6.619316057221727" cx="707.3432291113407" cy="608.8952901429341"></circle><circle r="6.768567612619883" cx="123.29457816572702" cy="601.2345294838592"></circle><circle r="6.495267593871674" cx="479.8754819652721" cy="527.7987915314642"></circle><circle r="6.219860051816996" cx="459.79080955920796" cy="168.76803750042282"></circle><circle r="4.127989651340325" cx="549.3724602310676" cy="598.5002492298371"></circle><circle r="8.332999121873451" cx="201.33820589129448" cy="218.16741167533243"></circle><circle r="5.00405033888644" cx="783.211028786679" cy="738.9006233661948"></circle><circle r="4.543073118316982" cx="634.4569477798542" cy="224.29424319977545"></circle><circle r="4.951471577426741" cx="536.4574832556624" cy="337.32098907260007"></circle><circle r="8.84382828332736" cx="620.2695462952657" cy="130.8174078895284"></circle><circle r="4.391444986963948" cx="214.46622088593267" cy="568.6024605703079"></circle><circle r="6.300417251630762" cx="346.95582949183563" cy="783.7361348852553"></circle><circle r="2.8524808247867255" cx="706.9225364983532" cy="521.0860787151873"></circle><circle r="8.004601672342279" cx="303.2306460577638" cy="337.2146167650859"></circle><circle r="4.232777046667307" cx="509.5255427866124" cy="281.9051231749142"></circle><circle r="6.6695818335233765" cx="139.02141010852904" cy="144.13590486602382"></circle><circle r="3.6669480216112875" cx="140.95884572522402" cy="382.7200439910444"></circle><circle r="5.182121434406499" cx="9.541188341227738" cy="75.15519833091601"></circle><circle r="6.7735600880838405" cx="696.4386905792479" cy="379.78135622911503"></circle><circle r="4.628459304925801" cx="736.3585667888856" cy="540.0297157772337"></circle><circle r="2.946416741906553" cx="708.2279499534897" cy="343.3210658819592"></circle><circle r="4.2387386630182435" cx="35.68072943749261" cy="71.31049101245819"></circle><circle r="5.9691047583126045" cx="717.3419926630825" cy="121.07488976524837"></circle><circle r="5.326459677195288" cx="599.42444990976" cy="88.71212106064314"></circle><circle r="5.203079335480291" cx="69.44754806055091" cy="321.32636130787284"></circle><circle r="4.444954767269893" cx="751.2474353425181" cy="664.9454396931553"></circle><circle r="8.52675490226783" cx="655.2772733930713" cy="641.1083212089068"></circle><circle r="5.664780074695357" cx="76.71942764611126" cy="174.82354242456495"></circle><circle r="7.266346697078864" cx="253.62902656313105" cy="727.52862460779"></circle><circle r="5.277885132679641" cx="106.61053505594172" cy="407.8468376794618"></circle><circle r="3.0857199492514393" cx="390.1668338908711" cy="333.5339148434809"></circle><circle r="6.9611763629467625" cx="590.2578469633654" cy="784.1945981673522"></circle><circle r="6.056289582267862" cx="564.9098937920472" cy="503.57322846330794"></circle><circle r="3.811803407656827" cx="117.26490343580164" cy="248.48002347306263"></circle><circle r="5.393225405270089" cx="614.5365284154807" cy="341.60667278773474"></circle><circle r="5.7514707254971125" cx="494.78334389294344" cy="560.9093066227725"></circle><circle r="3.400243598050889" cx="613.3209654180024" cy="699.6461316837741"></circle><circle r="2.814881089538902" cx="542.6257293296067" cy="116.28417321769201"></circle><circle r="3.88052624157756" cx="337.5064691832959" cy="597.5161411759507"></circle><circle r="5.743673232996267" cx="153.38704325837233" cy="484.17057841397576"></circle><circle r="2.7537966886379857" cx="545.974182849841" cy="98.88014553723978"></circle><circle r="8.706896444071788" cx="639.6473932362591" cy="464.6828770342915"></circle><circle r="3.4314167382587817" cx="434.20443522700083" cy="643.7868760319454"></circle><circle r="3.490429428040938" cx="315.65063452024935" cy="395.59918931857794"></circle><circle r="7.759407629841762" cx="695.4913313937692" cy="570.8294983281659"></circle><circle r="8.070282695513963" cx="149.06011891315262" cy="701.1137905227174"></circle><circle r="6.591500530407332" cx="480.7685917295086" cy="348.79683017497985"></circle><circle r="4.6873509337359724" cx="127.54078623137691" cy="313.3285252708509"></circle><circle r="3.8172378491885532" cx="402.4546266974771" cy="772.3687382213426"></circle><circle r="8.546380510045525" cx="623.9371858318971" cy="776.4302232194158"></circle><circle r="6.51580348647539" cx="167.28312898559088" cy="775.8886906945422"></circle><circle r="3.8314014505059615" cx="687.791857267416" cy="536.7449540576895"></circle><circle r="5.056219282622369" cx="712.4731765584181" cy="744.738304067724"></circle><circle r="9.66681102678155" cx="108.52672547083893" cy="118.22585496124462"></circle><circle r="5.009147397147518" cx="287.1839490829611" cy="698.8563245102958"></circle><circle r="5.6262335618052335" cx="568.6408025459023" cy="195.6051716920092"></circle><circle r="5.78957812565786" cx="71.25745652927175" cy="230.32544888184623"></circle><circle r="6.865599440208215" cx="140.882037789946" cy="657.9207423839517"></circle><circle r="4.255782558006986" cx="664.1707245625703" cy="711.333708372593"></circle><circle r="7.391672859995182" cx="568.4894297762041" cy="465.70744312291663"></circle><circle r="4.124943987058242" cx="117.89400423040719" cy="777.7476816020873"></circle><circle r="4.285486442178568" cx="84.76233661711652" cy="288.6843709577619"></circle><circle r="7.0639510359839175" cx="783.3189238843427" cy="609.3694140812322"></circle><circle r="4.755182463932846" cx="715.4540208140893" cy="157.92163254977118"></circle><circle r="7.058187849701364" cx="463.6000818493893" cy="780.7307186731401"></circle><circle r="7.84551483281371" cx="322.6190366933444" cy="740.5318915123232"></circle><circle r="6.1309196474452605" cx="750.3950116987935" cy="468.9584600913865"></circle><circle r="5.416598018163453" cx="620.8119397491987" cy="169.7144625155521"></circle><circle r="6.556234254702412" cx="47.81278228575206" cy="617.4559693226889"></circle><circle r="6.3241677010095625" cx="264.53154501396324" cy="280.0470554723168"></circle><circle r="3.6410276742926118" cx="564.4107069996415" cy="336.9769026268807"></circle><circle r="4.971090996836823" cx="57.98224932577326" cy="782.9385745674185"></circle><circle r="6.95230669996604" cx="75.90538705312977" cy="378.757767231335"></circle><circle r="6.713920115224978" cx="582.8372637417428" cy="142.26251508134055"></circle><circle r="8.16020078763401" cx="224.92865706073712" cy="405.16096001932806"></circle><circle r="9.129154998409433" cx="76.32330645872206" cy="519.334607418967"></circle><circle r="4.032368620874147" cx="443.60278676250135" cy="354.8268637702251"></circle><circle r="3.779314929264322" cx="326.70379881632977" cy="368.9863405615246"></circle><circle r="5.235010308578604" cx="175.49424019363525" cy="277.246825672687"></circle><circle r="6.553520492503082" cx="226.3877248279276" cy="700.5324934256088"></circle><circle r="7.136801733261679" cx="71.82077170629134" cy="59.8858814628599"></circle><circle r="7.563266758750295" cx="27.09963138072753" cy="665.1982122794876"></circle><circle r="3.880240352628459" cx="347.56498139270866" cy="12.080158316823452"></circle><circle r="8.076798165627999" cx="289.1163547370354" cy="408.5754910245352"></circle><circle r="9.147743343126438" cx="443.9312985736279" cy="249.0361273650155"></circle><circle r="4.946361689689428" cx="545.0392206985648" cy="153.5478602370788"></circle><circle r="5.8804402186032245" cx="510.0052224891367" cy="483.8087531654168"></circle><circle r="3.7074408684507736" cx="416.3651903907416" cy="388.0258346842299"></circle><circle r="5.201560459340024" cx="505.425149513196" cy="408.050209337544"></circle><circle r="8.953531224516233" cx="327.4803425775096" cy="543.0630357811623"></circle><circle r="7.262511302088157" cx="622.0112722369951" cy="425.6499962577091"></circle><circle r="4.682716178738221" cx="452.42236850508465" cy="539.3299701205661"></circle><circle r="7.180352749069193" cx="706.7311658530652" cy="189.06830520513623"></circle><circle r="5.091453932884306" cx="443.6703412585797" cy="675.1662465937385"></circle><circle r="7.727690044770446" cx="639.9257077660409" cy="372.77111980173567"></circle><circle r="5.193912984351304" cx="112.32150519725268" cy="373.6442983974289"></circle><circle r="3.002454048053974" cx="368.1555935915778" cy="40.162888616854296"></circle><circle r="6.400155463857419" cx="376.75784201743204" cy="662.3007753016744"></circle><circle r="4.699951898654187" cx="33.61503438284543" cy="209.34359324255882"></circle><circle r="5.265030277060799" cx="447.6673546047865" cy="514.9935047537363"></circle><circle r="7.133750771821549" cx="169.17387123078092" cy="565.28601718894"></circle><circle r="5.955094917749934" cx="160.58146213275336" cy="201.34887295043902"></circle><circle r="2.564088443156763" cx="481.0695774090298" cy="646.5638792164658"></circle><circle r="6.752995287920265" cx="502.7990054084817" cy="693.2908915280485"></circle><circle r="6.783455530060336" cx="553.1041492362513" cy="564.1189046537946"></circle><circle r="5.131071222157132" cx="422.6108578414108" cy="106.29277680604488"></circle><circle r="3.7302888277385087" cx="326.77153953947146" cy="16.095227712783558"></circle><circle r="5.276605808942717" cx="455.06287078928375" cy="630.5439158896819"></circle><circle r="6.180049200012193" cx="498.32735435569214" cy="175.7570769568067"></circle><circle r="5.124087994294994" cx="404.18704207094606" cy="604.2691666306339"></circle><circle r="6.179095531770216" cx="298.65583351871476" cy="181.24301045365212"></circle><circle r="7.118015750137044" cx="302.0247372187181" cy="669.5208514751899"></circle><circle r="4.16007857969949" cx="364.26370575126754" cy="83.38314682863613"></circle><circle r="4.457435965372942" cx="305.9267376324557" cy="241.04134626046167"></circle><circle r="7.194461523451965" cx="443.111835618503" cy="487.3213244742901"></circle><circle r="4.902369706469948" cx="264.34879189393916" cy="238.8554805899809"></circle><circle r="2.5085743834123257" cx="412.99187103450936" cy="365.73282805780343"></circle><circle r="7.551223396655294" cx="47.89717948204769" cy="540.6576346126852"></circle><circle r="4.574407373719451" cx="391.8594823290667" cy="263.94380674023284"></circle><circle r="5.958994471730592" cx="484.5791617229545" cy="728.6332612629096"></circle><circle r="6.895830774947876" cx="683.2075764973412" cy="154.28416815568542"></circle><circle r="8.162503614274172" cx="781.7224084943165" cy="779.2168274190277"></circle><circle r="4.405668902587715" cx="11.747109170479437" cy="331.5255678572789"></circle><circle r="5.1634396105741445" cx="588.918995221429" cy="335.12575493467455"></circle><circle r="4.309555444522371" cx="395.5800450300812" cy="298.2731951462907"></circle><circle r="6.664768127662051" cx="107.2695207997148" cy="696.8819637513792"></circle><circle r="12.124644869675397" cx="618.0502925705281" cy="30.899957224069574"></circle><circle r="4.512999089351908" cx="747.2102135477336" cy="320.1399396398139"></circle><circle r="6.001991782584291" cx="64.66615576260556" cy="663.1667121410003"></circle><circle r="6.217189232650657" cx="565.073803639863" cy="738.0122334573879"></circle><circle r="6.713553169786575" cx="208.3242694960931" cy="93.59088896515124"></circle><circle r="4.952116159117524" cx="324.96914956510795" cy="68.1951675615529"></circle><circle r="8.131307392291749" cx="649.3000797853862" cy="591.0725152065858"></circle><circle r="3.9098065595147666" cx="702.6598753669431" cy="460.88511633679605"></circle><circle r="4.149586385470942" cx="639.8899361950595" cy="197.94423681377603"></circle><circle r="8.42233687600853" cx="45.641120020779184" cy="22.179142150607863"></circle><circle r="5.8024026296319295" cx="341.6041660222083" cy="468.11291262692623"></circle><circle r="5.194828525691289" cx="244.9764526328752" cy="156.40620612922672"></circle><circle r="8.730220431808945" cx="436.40883157448644" cy="424.39717653782185"></circle><circle r="5.408097685541459" cx="99.65945359647552" cy="444.5700368937958"></circle><circle r="8.301619531161379" cx="780.951971501308" cy="320.7876376405629"></circle><circle r="3.6182048848029833" cx="399.9759030917498" cy="578.7243401975971"></circle><circle r="9.942290416221518" cx="195.39821563101947" cy="435.6806546140875"></circle><circle r="8.054661843358955" cx="67.2616324115916" cy="102.92502467366137"></circle><circle r="3.225617555544493" cx="398.4143454169248" cy="354.88479323844405"></circle><circle r="6.3060168328212765" cx="451.08977002830363" cy="383.432071823871"></circle><circle r="5.466554573445832" cx="685.8708144705215" cy="324.5185544101513"></circle><circle r="6.68967005095042" cx="465.5036318906346" cy="587.1778773350991"></circle><circle r="6.653625286920819" cx="256.3968570549409" cy="564.4553660188617"></circle><circle r="6.961915543173241" cx="677.5818807899751" cy="209.7998246600519"></circle><circle r="6.482613857087918" cx="719.8330866964856" cy="297.16974315573503"></circle><circle r="3.7866816804306707" cx="361.77325430341466" cy="607.8840108860234"></circle><circle r="8.360586294297061" cx="286.7954630107818" cy="779.2913301294121"></circle><circle r="3.5263685609542397" cx="63.27456844447337" cy="298.14679246882315"></circle><circle r="8.021419595891327" cx="555.7308104381253" cy="776.0381162803365"></circle><circle r="7.290826106446003" cx="259.8953237995811" cy="490.88396142809285"></circle><circle r="5.025195033174977" cx="219.34412540630146" cy="54.61006820162309"></circle><circle r="3.505546238684093" cx="374.503771521598" cy="13.110238658434676"></circle><circle r="7.6493746539634255" cx="317.9902610603658" cy="148.30260559570587"></circle><circle r="6.5975023554468315" cx="363.60276450308413" cy="564.8506069844365"></circle><circle r="7.976356243978627" cx="64.79489358832834" cy="570.556853395619"></circle><circle r="6.021975551474624" cx="538.2579019854672" cy="228.5951861240127"></circle><circle r="4.126112338047185" cx="31.635578576800352" cy="391.15754823529676"></circle><circle r="5.619078647998583" cx="594.3789174034873" cy="174.7250502668464"></circle><circle r="5.423035806848423" cx="527.9349007921377" cy="717.0831035685075"></circle><circle r="5.752908035712924" cx="93.65774860194448" cy="735.4843194266653"></circle><circle r="7.869096286884197" cx="653.2040748533947" cy="751.5487950453384"></circle><circle r="5.317437583219449" cx="689.2791541680521" cy="76.06171341759779"></circle><circle r="4.462598166923866" cx="346.7521084342138" cy="245.2078190211321"></circle><circle r="7.0968412777392516" cx="553.2184292627533" cy="676.7466167419115"></circle><circle r="3.3237704311817255" cx="730.5868287180348" cy="568.1239231779199"></circle><circle r="5.606622737366367" cx="399.4159489648378" cy="546.2506597007063"></circle><circle r="3.952956024604195" cx="106.01360186505293" cy="302.27529237733773"></circle><circle r="6.679669047314313" cx="754.0261317143933" cy="154.38190699499557"></circle><circle r="3.400021764763707" cx="787.1236410994067" cy="546.8036824519963"></circle><circle r="5.129720855658177" cx="526.6244238625351" cy="568.7530277465355"></circle><circle r="8.805092459486422" cx="353.4274031567958" cy="699.6309506254721"></circle><circle r="4.152621777101431" cx="746.4681290959222" cy="632.6534103312264"></circle><circle r="3.560357331382735" cx="711.8939952101184" cy="545.5167460849289"></circle><circle r="6.060381309768111" cx="684.52915275775" cy="292.4579213771941"></circle><circle r="5.7749953459649355" cx="634.9286695989143" cy="513.0818020498456"></circle><circle r="5.819587205071668" cx="92.40809826142726" cy="20.274063327657924"></circle><circle r="7.59403949202836" cx="623.7212454960367" cy="659.4685042125227"></circle><circle r="5.00761954336741" cx="287.61965708704395" cy="738.9304475145326"></circle><circle r="4.173988463786771" cx="736.3044578157308" cy="490.58082627149093"></circle><circle r="5.570651335037059" cx="35.87735435541036" cy="306.6907515811084"></circle><circle r="3.232574097296099" cx="9.00598690659153" cy="212.3101858221704"></circle><circle r="7.769519098162043" cx="355.67976285595535" cy="181.78694661689264"></circle><circle r="4.762625138862437" cx="24.386580382744324" cy="241.2837785102999"></circle><circle r="6.433263156089337" cx="20.576304830896387" cy="421.1971517017867"></circle><circle r="8.833461979051954" cx="236.10656937873108" cy="203.46431985894498"></circle><circle r="10.036748992896598" cx="193.80989685931667" cy="674.1054694624877"></circle><circle r="4.591212255633693" cx="659.206524532092" cy="242.4644582017283"></circle><circle r="4.6975718446534485" cx="729.4914864998311" cy="517.6037036373115"></circle><circle r="7.264206512193078" cx="754.3562294851675" cy="720.6405026145425"></circle><circle r="5.622753062167112" cx="141.37612528047927" cy="230.52592146894955"></circle><circle r="7.711231718025607" cx="309.19820907182594" cy="492.979087572825"></circle><circle r="6.694182583650918" cx="619.7676365122302" cy="308.71136511884623"></circle><circle r="7.234955556338263" cx="545.758631281081" cy="434.84059189778856"></circle><circle r="7.969961593380137" cx="18.254503162303262" cy="169.41956795559838"></circle><circle r="5.96453449367641" cx="131.56399048882545" cy="345.6446724284954"></circle><circle r="5.607627467001979" cx="42.46557759313249" cy="333.32495042630285"></circle><circle r="7.043420198419989" cx="458.39552511270205" cy="129.65251071409787"></circle><circle r="5.004819751077976" cx="472.7035111588139" cy="403.65202537613123"></circle><circle r="5.590410127373051" cx="91.98459516787369" cy="782.2359228794445"></circle><circle r="4.27639504698856" cx="492.5635550016906" cy="769.0138043874805"></circle><circle r="4.086092740661027" cx="700.7310929637138" cy="482.17372966501387"></circle><circle r="6.459706392019887" cx="433.7428393542058" cy="209.26661603064798"></circle><circle r="4.036865744832362" cx="535.6930337820966" cy="276.86140751972533"></circle><circle r="4.254180870288257" cx="456.9798993130898" cy="321.0956466586868"></circle><circle r="8.13645951673707" cx="435.00897648682087" cy="600.9569336927967"></circle><circle r="7.720614140253662" cx="201.58446482878932" cy="782.8402448798348"></circle><circle r="4.565521295540505" cx="346.8749357368724" cy="288.04669987901735"></circle></g></svg>